/* XPM */
static char *cd85eecf7d294014c14e7feb1aae43344unc52Ep6ieyAFt9[] = {
/* columns rows colors chars-per-pixel */
"50 50 186 2 ",
"   c None",
".  c #050504",
"X  c #11110E",
"o  c #1F1E1A",
"O  c #201F1A",
"+  c #22211C",
"@  c #27281D",
"#  c #2B2B23",
"$  c #2E2B29",
"%  c #322E27",
"&  c #3C3A2C",
"*  c #34382B",
"=  c #3A3636",
"-  c #363639",
";  c #393639",
":  c #373839",
">  c #3B3A3B",
",  c #3C3C36",
"<  c #423D3B",
"1  c #3E4035",
"2  c #5C4A2A",
"3  c #4C423C",
"4  c #49443D",
"5  c #50483E",
"6  c #3F5952",
"7  c #3D4A47",
"8  c #277377",
"9  c #3E7F79",
"0  c #397479",
"q  c #454242",
"w  c #484544",
"e  c #4E4944",
"r  c #4D4B4F",
"t  c #534E48",
"y  c #53504D",
"u  c #5B554C",
"i  c #5C5444",
"p  c #4A4C51",
"a  c #564551",
"s  c #5C4A55",
"d  c #5D4C59",
"f  c #554B54",
"g  c #4F5156",
"h  c #535252",
"j  c #5C5754",
"k  c #555B5B",
"l  c #5D5B5C",
"z  c #585758",
"x  c #605A4C",
"c  c #614E5B",
"v  c #64525E",
"b  c #665B59",
"n  c #53725C",
"m  c #6E6652",
"M  c #6B665F",
"N  c #64605F",
"B  c #736A55",
"V  c #7D745D",
"C  c #5A5D64",
"Z  c #665561",
"A  c #685763",
"S  c #6B5A64",
"D  c #466E60",
"F  c #576362",
"G  c #5A6364",
"H  c #5D646C",
"J  c #5A696B",
"K  c #556C65",
"L  c #4A7B6E",
"P  c #5D6B73",
"I  c #596871",
"U  c #5B7275",
"Y  c #5D727C",
"T  c #517078",
"R  c #497078",
"E  c #646161",
"W  c #6F6B68",
"Q  c #6C6762",
"!  c #746D64",
"~  c #746E6A",
"^  c #7A7265",
"/  c #7B756D",
"(  c #7B7469",
")  c #606F78",
"_  c #60717A",
"`  c #787474",
"'  c #856F5A",
"]  c #86735C",
"[  c #847A62",
"{  c #877468",
"}  c #827B6D",
"|  c #8E7A69",
" . c #847F7C",
".. c #3F857C",
"X. c #65855B",
"o. c #799657",
"O. c #548169",
"+. c #40877D",
"@. c #87A75F",
"#. c #958169",
"$. c #88827C",
"%. c #85AB63",
"&. c #5E7E88",
"*. c #5E7C86",
"=. c #218B8F",
"-. c #228184",
";. c #378886",
":. c #248D92",
">. c #2B8F94",
",. c #24979B",
"<. c #2B9499",
"1. c #249599",
"2. c #3D9E94",
"3. c #3B8B92",
"4. c #249FA3",
"5. c #3A99A0",
"6. c #24A0A5",
"7. c #48848C",
"8. c #5C838D",
"9. c #449D8F",
"0. c #499586",
"q. c #5C8791",
"w. c #5C8B95",
"e. c #5B8D98",
"r. c #5D929D",
"t. c #638791",
"y. c #688A95",
"u. c #798993",
"i. c #7B949E",
"p. c #53A48B",
"a. c #5AA789",
"s. c #5CA889",
"d. c #46AC9A",
"f. c #46A897",
"g. c #4DB49C",
"h. c #54B599",
"j. c #56B497",
"k. c #74BD8B",
"l. c #65BC93",
"z. c #5E96A1",
"x. c #5C9DA9",
"c. c #5A9CA7",
"v. c #439CA5",
"b. c #6A9BA6",
"n. c #7D9BA5",
"m. c #4FA7AD",
"M. c #5CA2AD",
"N. c #52A1AB",
"B. c #5EA5B1",
"V. c #61A0AB",
"C. c #79A3AE",
"Z. c #60A5B1",
"A. c #6EA7B0",
"S. c #7CAAB5",
"D. c #73ADB9",
"F. c #7AC38D",
"G. c #6CC295",
"H. c #64C098",
"J. c #73C794",
"K. c #7DCB92",
"L. c #898582",
"P. c #928E8D",
"I. c #908E91",
"U. c #8B959E",
"Y. c #949192",
"T. c #A29D9B",
"R. c #939AA2",
"E. c #9FA0A7",
"W. c #8FB2BD",
"Q. c #8DAAB4",
"!. c #A1A3AA",
"~. c #85CA8B",
"^. c #8CD28E",
"/. c #93D58C",
"(. c #9DDA8B",
"). c #9CD686",
"_. c #83CE91",
"`. c #89D190",
"'. c #ACDF85",
"]. c #A3DD89",
"[. c #A6DC86",
"{. c #ADE287",
"}. c #AAE188",
"|. c #B2E486",
" X c #A6BFC8",
".X c #A3C2CC",
/* pixels */
"                                                                                                    ",
"                                                                                                    ",
"                                                                                                    ",
"                              .                                     .                               ",
"                              .                                     .                               ",
"                                .                                 .                                 ",
"                                                2 2                                                 ",
"                                  X           S ' ] S           X                                   ",
"                                  &       v A S { { S Z         &                                   ",
"                                  B     d Z A S #.| A A c       B                                   ",
"                                      a s v A S #.| A v d s                                         ",
"                                    5 a s d v S ] ] v v d a a 5                                     ",
"                      .             % 5 x Z K K n K G F j c < %             .                       ",
"                        X             i L ;.;.+.......R 9 K x             X                         ",
"                                        0.9.p.a.a.a.a.p.0.0.                                        ",
"                            m         2.f.j.l.k.F.F.k.l.j.d.          m                             ",
"                              V       d.h.G._.^.(./.^.K.G.h.g.      V                               ",
"                                      g.H.K./.].].}.].^.K.j.g.      [                               ",
"                                [     j.J.^.(.{.|.|.}.(._.G.h.    [                                 ",
"                                  [ : D J./.].|.|.|.{.].`.G.L : V                                   ",
"                                  x > 7 k./.[.{.|.|.}.(.`.G.6 : u                                   ",
"                                    h : n ~.).}.{.[.}./.K.O.: r                                     ",
"                                    l : ; X.%.@.o.o.o.@.X.> = h                                     ",
"                                    Z 1 ; , & @ o o @ * 4 ; , z `                                   ",
"                                  z E w = = $ O o o o $ = = < Z l                                   ",
"                                j ~ I.t 4 q f q + + : h w q e Y.W b                                 ",
"                                ! $.E.y z C C C , * C G C F y E.L.(                                 ",
"                                / Y.U.r C C C C p p C C H F h R.  /                                 ",
"                              [ /   U.h C H H H H H E J P H k U.  / ^                               ",
"                              } /   y.k C P P J I P P U Y H k i.  ` }                               ",
"                              }  .  y.G F Y Y Y P P Y Y Y I F i.  P.}                               ",
"                              ( T.  t.U H Y Y Y I I Y Y Y U U n.    ^                               ",
"                              !     y.q.8.*.*.&.T T *.&.8.q.q.Q.    ^ !                             ",
"                            M }     b.e.w.q.8.t.R 0 q.q.w.e.r. X    $.Q                             ",
"                          i Q P.    D.z.r.r.w.e.0 8 e.e.z.z.b.        M u                           ",
"                            b       W.r.r.r.r.7.8 8 7.r.z.z.C.        Q e                           ",
"                            ~         b.x.x.x.3.-.-.3.c.x.M..X        L.4                           ",
"                          t           D.B.M.M.<.1.1.1.N.B.D.            u                           ",
"                          /           .XZ.B.v.,.,.,.1.2.B..X            L.                          ",
"                                        S.c.>.=.=.=.=.:.A.                                          ",
"                                          m.4.4.4.4.4.4.                                            ",
"                                              4.6.4.                                                ",
"                                                                                                    ",
"                                                                                                    ",
"                                                                                                    ",
"                                                                                                    ",
"                                                                                                    ",
"                                                                                                    ",
"                                                                                                    ",
"                                                                                                    "
};
