/* XPM */
static char *_fe6714d471d4defc2817647a68350ecE1A1oGNtPjv52loe[] = {
/* columns rows colors chars-per-pixel */
"50 50 147 2 ",
"   c None",
".  c #514B30",
"X  c #615936",
"o  c #6D642D",
"O  c #70682D",
"+  c #7B732E",
"@  c #6F6731",
"#  c #6E663C",
"$  c #756D34",
"%  c #756D39",
"&  c #7C7334",
"*  c #7C753E",
"=  c #676245",
"-  c #7D7542",
";  c #8A7D2F",
":  c #837B35",
">  c #837B3C",
",  c #857D42",
"<  c #847D4A",
"1  c #847E50",
"2  c #8C8034",
"3  c #8B833C",
"4  c #988A34",
"5  c #878043",
"6  c #8B8344",
"7  c #8C854B",
"8  c #8F884D",
"9  c #938B45",
"0  c #948C4B",
"q  c #9B924B",
"w  c #8A8351",
"e  c #958D52",
"r  c #948D59",
"t  c #979052",
"y  c #9C9454",
"u  c #97905B",
"i  c #9C945A",
"p  c #9F985E",
"a  c #A69A47",
"s  c #A49A4F",
"d  c #A09756",
"f  c #A39B55",
"g  c #A49C5C",
"h  c #AAA257",
"j  c #AAA25C",
"k  c #A59D61",
"l  c #A7A060",
"z  c #ACA463",
"x  c #AFA866",
"c  c #AFA869",
"v  c #B0A760",
"b  c #B3AB66",
"n  c #B4AD6A",
"m  c #B7B06C",
"M  c #B9B16B",
"N  c #BAB26A",
"B  c #B8B06C",
"V  c #B9B16C",
"C  c #B8B16D",
"Z  c #B9B16D",
"A  c #B8B16C",
"S  c #B9B26D",
"D  c #BAB26D",
"F  c #BBB36D",
"G  c #B9B26F",
"H  c #BAB36E",
"J  c #BBB36E",
"K  c #BAB26E",
"L  c #BCB36E",
"P  c #BBB46E",
"I  c #BCB46D",
"U  c #BDB56D",
"Y  c #BCB46E",
"T  c #BDB56E",
"R  c #BCB46F",
"E  c #BCB56F",
"W  c #BDB56F",
"Q  c #BDB66F",
"!  c #BEB66F",
"~  c #BCB46D",
"^  c #B6AF71",
"/  c #BBB370",
"(  c #BEB670",
")  c #BEB770",
"_  c #BFB770",
"`  c #BDB573",
"'  c #BDB673",
"]  c #BCB475",
"[  c #BFB674",
"{  c #C1B96F",
"}  c #C2BA6D",
"|  c #C0B675",
" . c #C0B870",
".. c #C1B970",
"X. c #C0B871",
"o. c #C1B971",
"O. c #C1BA71",
"+. c #C3BB71",
"@. c #C2BA72",
"#. c #C2BB72",
"$. c #C3BB72",
"%. c #C3BB73",
"&. c #C3BC73",
"*. c #C4BC72",
"=. c #C5BD72",
"-. c #C4BC73",
";. c #C5BD73",
":. c #C6BE73",
">. c #C5BD74",
",. c #C6BE74",
"<. c #C7BF74",
"1. c #C7BF75",
"2. c #C4BC72",
"3. c #C2BA7B",
"4. c #C3BB7B",
"5. c #CABF7C",
"6. c #C8C074",
"7. c #C9C175",
"8. c #CAC176",
"9. c #CAC276",
"0. c #CBC276",
"q. c #CBC377",
"w. c #CBC376",
"e. c #CDC379",
"r. c #D0C67B",
"t. c #D2C97A",
"y. c #CDC587",
"u. c #CBC486",
"i. c #D7CC86",
"p. c #DACF85",
"a. c #D1CA8D",
"s. c #D2CA8D",
"d. c #DBD087",
"f. c #DDD38B",
"g. c #D6CE92",
"h. c #D8CF92",
"j. c #DAD296",
"k. c #DED592",
"l. c #DDD59A",
"z. c #E0D694",
"x. c #E1D897",
"c. c #E1D99E",
"v. c #E2DA9C",
"b. c #E2DAA0",
"n. c #E4DCA2",
"m. c #E5DDA3",
"M. c #E6DDA3",
/* pixels */
"                                                                                                    ",
"                                                                                                    ",
"                                                                                                    ",
"                                                                                                    ",
"                                                                                                    ",
"                                                                                                    ",
"                                                                                                    ",
"                                                                                                    ",
"                                                                                                    ",
"                                                                                                    ",
"                                                          r                                         ",
"                                  w w k k u           u p i 6                                       ",
"                                  % , g x b p w p k u l e e # o                                     ",
"                                2 o = e i x r x n g i g 0 < . 4                                     ",
"                                a ; X e d k e $.>.b d H g * $ d 7                                   ",
"                              < y f 0 u H U _ >.>.>.$.) H k d b x p                                 ",
"                            z b n n b n ) $.%.<.<.-.X.) H B n B ~ H k                               ",
"                          k / U H B n n n n n n n b c x z l z c n H ~ k                             ",
"                          / ) n z k g k k k k g g g g k k z k g i n $.x                             ",
"                          $.U k z c b n b x l y 0 q d x c n b n n ~ [ c                             ",
"                          $.>.$.L B n n B n n b x b n H n n n n H ~ / k                             ",
"                          b >.$.) H B H / ) ~ ~ ~ ) U U / H m m H ~ g %                             ",
"                          3 M &.) L L ) $.-.&.-.&.-.>.$.) H m m M b 3 3 5                           ",
"                        & & y $.) L U $.-.>.8.8.8.8.8.>.) H m m H y 6 g v i                         ",
"                      & 0 l y U U H n n $.6.8.e.w.>.U z j n n n b 6 0 7 x [ g & &                   ",
"                    % g $.$.q n H H n j d f g f f y y g b n n n x 3 h z g N U 0 6 l u               ",
"                  r g _ -.N 9 n m n n n n n m H U ) ' / n n n n x 9 v -.n y 6.b > h z               ",
"                  ~ 6.6.-.f 9 n n b n 3.a.l.M.M.M.M.c.j.u.] c b n 0 y } 6.x j N > q H k             ",
"                g h y h s & e n n ] g.m.M.M.M.M.M.M.M.M.M.b.y.n n u , N %.<.z j y 0 H g             ",
"                y : O O + $ p n 4.c.M.m.M.M.M.M.M.M.M.M.M.M.n.g.n j : 3 9 h M 8 6 y l               ",
"                j n q & + : l 3.l.M.n.v.v.v.M.v.M.M.M.M.M.M.n.c.u.l : + ; j } g 5 g g               ",
"                M 6.6.h & % b j.v.c.v.v.x.x.v.v.v.M.v.v.v.v.v.c.k.z $ 3 b -.%.z 0 0                 ",
"                n >.8.-.9 $ m l.x.x.x.z.z.k.z.z.z.x.x.x.x.x.x.x.h.t 6 M 6.>.~ i e $                 ",
"                7 l e.e.v ; n v.z.z.k.k.k.f.k.z.k.z.k.k.z.x.z.k.v d } e.8.>.j g 0 ,                 ",
"                  n e.r.} 3 p k.z.f.f.f.p.f.p.f.f.k.f.f.f.f.f.n 6 } r.e.>.b d j 5 y 0 7             ",
"                  )  .} t.f 2 4.f.f.f.p.p.p.p.p.d.d.f.f.f.f.| d d } w.7.M y g 6 , w 5 0 6 * 7       ",
"          e 8 , % z w.r.t.} 4 0 5.f.d.p.p.p.p.p.d.d.f.f.f.| g U >.e.8.-.d 0 9 o 0 w   , 5 $         ",
"          e 7 y y t 6.t.t.w.n q 9 z -.e.e.e.5.r.p.p.i.5.n k n L  .$.b d : &     % 8     < -         ",
"        7 < * , > # 8 _ e.7.U j e > 6 d d d y y n k d 0 i g n B b g * @ &                           ",
"                      l Q ~ C n x y 7 7 <   u     , 7 7 7 y 8 7 , &                                 ",
"                                      -         5 t 8 6 0 ,                                         ",
"                                                                                                    ",
"                                                                                                    ",
"                                                                                                    ",
"                                                                                                    ",
"                                                                                                    ",
"                                                                                                    ",
"                                                                                                    ",
"                                                                                                    ",
"                                                                                                    "
};
