/* XPM */
static char *_50649c62e554809d1ddd0858f5c43cfzwMDcB1A2r99ulYZ[] = {
/* columns rows colors chars-per-pixel */
"50 50 136 2 ",
"   c None",
".  c #010101",
"X  c #070904",
"o  c #0B0C05",
"O  c #0D0D0B",
"+  c #101306",
"@  c #13140C",
"#  c #161A0A",
"$  c #1B1C0F",
"%  c #1B1C11",
"&  c #221215",
"*  c #1D220C",
"=  c #1E2013",
"-  c #21250E",
";  c #252B0F",
":  c #252717",
">  c #252C10",
",  c #282E12",
"<  c #272818",
"1  c #2A2B1A",
"2  c #2B3412",
"3  c #2F321D",
"4  c #343C16",
"5  c #32341F",
"6  c #363A1F",
"7  c #343620",
"8  c #373B22",
"9  c #3B3D25",
"0  c #3B4619",
"q  c #3F4A1B",
"w  c #3F4126",
"e  c #424D1C",
"r  c #46511D",
"t  c #48561E",
"y  c #4B5A1F",
"u  c #414528",
"i  c #4A4F2E",
"p  c #4E5D21",
"a  c #4E532E",
"s  c #535E26",
"d  c #4D4E31",
"f  c #4E5131",
"g  c #555B33",
"h  c #595E37",
"j  c #5C5E3C",
"k  c #566424",
"l  c #5D6E27",
"z  c #5D662F",
"x  c #5E6F28",
"c  c #5B6138",
"v  c #606F27",
"b  c #63742B",
"n  c #65782B",
"m  c #6A7C2C",
"M  c #60673C",
"N  c #464646",
"B  c gray32",
"V  c #6D424C",
"C  c #6C7243",
"Z  c #717647",
"A  c #757B48",
"S  c #717352",
"D  c #7B7C7B",
"F  c #6E822E",
"G  c #70842F",
"H  c #758A31",
"J  c #798A31",
"K  c #7C9335",
"L  c #79804B",
"P  c #839B37",
"I  c #8DA33B",
"U  c #92A73B",
"Y  c #92AD3D",
"T  c #99AF3E",
"R  c #96B23F",
"E  c #9DB33F",
"W  c #838C51",
"Q  c #8A8F58",
"!  c #8B9356",
"~  c #8F9559",
"^  c #909857",
"/  c #909759",
"(  c #939A5A",
")  c #97B341",
"_  c #9EB540",
"`  c #9DBA42",
"'  c #98A15E",
"]  c #A2BB42",
"[  c #9CA761",
"{  c #9FAA62",
"}  c #A2AD65",
"|  c #A8AE68",
" . c #A7B167",
".. c #ABB26A",
"X. c #B0B76F",
"o. c #B2BB6E",
"O. c #BABD78",
"+. c #A6C345",
"@. c #A8C546",
"#. c #AAC947",
"$. c #ADCD48",
"%. c #B5D74C",
"&. c #B7D94C",
"*. c #B9DC4D",
"=. c #BDC662",
"-. c #BAC573",
";. c #BCC875",
":. c #C0E450",
">. c #C1CD77",
",. c #C6CD7A",
"<. c #C4D179",
"1. c #CED57E",
"2. c #E57F95",
"3. c #929292",
"4. c gray68",
"5. c gray71",
"6. c #FE8DA5",
"7. c #FF8FA8",
"8. c #F790A6",
"9. c #CFDA80",
"0. c #D2DA81",
"q. c #D5E284",
"w. c #D9E486",
"e. c #DCE789",
"r. c #DDEB89",
"t. c #E1EC8C",
"y. c #E6F58E",
"u. c #E8F68F",
"i. c #EAF792",
"p. c #EFF993",
"a. c #C3C3C3",
"s. c gray80",
"d. c #DADADA",
"f. c #EFEFEF",
"g. c #FEFEFE",
"h. c white",
/* pixels */
"                                                                                                    ",
"                                        o # # #                                                     ",
"                                , X   *.&.%.%.%.&.                                                  ",
"                              +.%.%.*.&.&.G B % K *.                                                ",
"                            . %.b 4 &.p 5.g.N D g.x .                                               ",
"                            . D g.X G g.g.D . . f.g..                                               ",
"                    f  .      s.X . a.g.g.d.. . 3.N . .                                             ",
"                  <.y.y.y.  . S O . g.g.g.g.4.>.y.i.y.y..                                           ",
"              . 1.y.y.{ p.y.y.y.y.y.y.r.O O y.y.: O y.y.y.                                          ",
"              . 0.,.y.} =.y.y.y.y.y.y.| y.y.y.y.y.y.y.w.y.w                                         ",
"                . ,.o.y.y.y.y.y.y.y.y.y.y.y.y.y.y.y.y.y.u.L                                         ",
"                  @ y./ y.y.y.y.y.y.y.y.y.y.y.y.y.. y.y.u.L                                         ",
"                  O t.y.y.y.y.y.y.y.y.y.y.i.y.[ C y.y.y.u.X                                         ",
"                    A 0.y.y.u.u.y.y.y.9.t.0.y.y.y.y.y.y. .                                          ",
"                      < q.0.0.q.0.0.-.o.y.y.r.>.y.y.w...                                            ",
"                . 6.2.7.V     1     @ % 1 d w.y.;.) Y                                               ",
"                6.                    0.y.y.y.y.% &.o                                               ",
"              & 6.                    9 w.A . . X %.                                                ",
"              6.8.                    9 w.y.y.9 % .                                                 ",
"                                      3 y.y.i.4 %.                                                  ",
"                                      w y.y.w %.$                                                   ",
"                                      9 y.u R *.                                                    ",
"                                      t.y.i %.+                                                     ",
"                                    . y.y.b !                                                       ",
"                                    1.o.% %.e                                                       ",
"                                  o y.y.y &..                                                       ",
"                                  y.y.y.:.%.                                                        ",
"                                . y.y.} %.%.            2 %.&.&.&.2                                 ",
"                                q.y.. o &.i.              0 %.%.%.%.0                               ",
"                                y.y.y.2 F y.                F &.&.&.&..                             ",
"                              . y.y.y.H ` y.                # %.%.W y.-.                            ",
"                              @ y.y.y.] P `                 F %.p y.y.-.                            ",
"                              -.y.< < _ j Y +             . %.y.) r.y.-.                            ",
"                      . t.t.%.-.y.y.u._ %.%.x           . %.n %.%.%.$.. . .                         ",
"                      y.y.y.K -.y.y.u._ %.%.%..     + %.%.%.o ] _ U @ y.y.%.%.r                     ",
"                    1 y.y.-.%.-.y.y.u.4 @.%.%.t %.%.%.*.k 0 m y y.y.y.y.e.%.%.%.r                   ",
"                    ; %.%.1 #.# y.' ' 2 _ %.%.%.X i g %.%.%.%.K 6 y.u.} n %.%.%.%.                  ",
"                    . %.%.k %.; y.y.u.a _ k Y %.%.. y.X.%.&.%.W %.n %.%.%.%.%.%._                   ",
"                    . ; ; q r E e.u.u.u.m _ %.^ #.%.x ;.%.*.%.&.%.m %.%.%.$.] r n n .               ",
"                . &.%.%.%.%.%.%.i y.u.u.M _ ^ y.y.%.%.@.q m ] +.] +.] E k ; U %.%.%.&.$.            ",
"                &.%.&.%.%.%.%.2 | u.u.y.y.v ! y.y.%.%.%.%.%.@.U Y Y Y %.%.%.%.t y.Q &.%.m           ",
"              r %.%.&.$.u *.%.y.1.$ y.t.q.O.T 1.y.%.%.%.%.%.%.%.%.%.%.%.%.%.%.[ y.y.%.%.%.          ",
"              ) %.%.3 ' %.%.%.y.y.1.r.y.y.y.h E _ &.%.%.%.%.b %.%.X %.%.%.%.%.e y.y.%.%.%..         ",
"              ) %.%.%.I z R %.%.* I I u.y.y.y.g ) - @.%.%.%.> %.` : y.y.1 ` %.%.@.%.%.%.%.          ",
"              . %.H y.y.y.y.Z %.%.%._ - y.y.= . . _ ] E $.%.%.0 y.y.y.y.y.u.= %.! @.%.%.P           ",
"                *.y.y.y.y.y.y., %.%._ _ , y.y.y.y.y.v E E ] ] u.y.y.y.y.y.y.y.n %.%.%.#..           ",
"                . u.y.y.y.y.y.y.%.%.%._ E , u.u.y.y.y.c J _ s 0.0.w.y.y.u.y.y.( @.E _ @             ",
"                  @ y.y.y.y.y.y.&.%.%.%._ E J u y.y.y.y.y.a ! 0.0.0.0.0.1.0.0.0._ R                 ",
"                        8 8 8 9 2 2 2 2 2 ; ; ; , . 1 9 8 8 7 X 5 5 5 5 5 5 7 X                     ",
"                                                                                                    "
};
