/* XPM */
static char *_e9863fd8f704529a05878fc75e404cfdx2Y7scDObR9IFwH[] = {
/* columns rows colors chars-per-pixel */
"50 50 134 2 ",
"   c None",
".  c #9D9D9D",
"X  c #9F9F9F",
"o  c #A4A4A3",
"O  c #A6A6A6",
"+  c #A9A9A8",
"@  c #A9A9A9",
"#  c #AAAAA9",
"$  c #ACACAB",
"%  c #ACACAC",
"&  c #ADADAC",
"*  c #B1B1B0",
"=  c #B1B1B1",
"-  c #B2B2B2",
";  c #B7B7B7",
":  c #B8B8B7",
">  c #B9B9B9",
",  c #BABAB9",
"<  c #BBBBBB",
"1  c #BCBCBC",
"2  c #BDBDBC",
"3  c #BDBDBD",
"4  c #BEBEBE",
"5  c #BFBFBE",
"6  c #BFBFBF",
"7  c #C1C1C1",
"8  c #C4C4C4",
"9  c #C5C5C4",
"0  c #C6C6C5",
"q  c #C7C7C6",
"w  c #C7C7C7",
"e  c #C8C8C7",
"r  c #C8C8C8",
"t  c #C9C9C8",
"y  c #C9C9C9",
"u  c #CACAC9",
"i  c #CACACA",
"p  c #CBCBCA",
"a  c #CBCBCB",
"s  c #CCCCCB",
"d  c #CCCCCC",
"f  c #CDCDCC",
"g  c #CECECD",
"h  c #CECECE",
"j  c #CFCFCE",
"k  c #D1D1D0",
"l  c #D2D2D1",
"z  c #D2D2D2",
"x  c #D3D3D3",
"c  c #D4D4D3",
"v  c #D4D4D4",
"b  c #D5D5D4",
"n  c #D6D6D5",
"m  c #D6D6D6",
"M  c #D7D7D6",
"N  c #D7D7D7",
"B  c #D8D8D7",
"V  c #D8D8D8",
"C  c #D9D9D8",
"Z  c #D9D9D9",
"A  c #DADAD9",
"S  c #DADADA",
"D  c #DBDBDA",
"F  c #DBDBDB",
"G  c #DCDCDB",
"H  c #DCDCDC",
"J  c #DDDDDC",
"K  c #DDDDDD",
"L  c #DEDEDD",
"P  c #DFDFDE",
"I  c #DFDFDF",
"U  c #E0E0DF",
"Y  c #E0E0E0",
"T  c #E1E1E0",
"R  c #E1E1E1",
"E  c #E2E2E1",
"W  c #E3E2E2",
"Q  c #E3E3E2",
"!  c #E3E3E3",
"~  c #E4E4E3",
"^  c #E4E4E4",
"/  c #E5E5E4",
"(  c #E5E5E5",
")  c #E6E6E5",
"_  c #E6E6E6",
"`  c #E7E6E6",
"'  c #E7E7E6",
"]  c #E7E7E7",
"[  c #E8E8E7",
"{  c #E8E8E8",
"}  c #E9E9E8",
"|  c #E9E9E9",
" . c #EAEAE9",
".. c #EAEAEA",
"X. c #EBEAEA",
"o. c #EBEBEA",
"O. c #EBEBEB",
"+. c #ECECEB",
"@. c #ECECEC",
"#. c #EDEDEC",
"$. c #EDEDED",
"%. c #EEEEED",
"&. c #EEEEEE",
"*. c #EFEFEE",
"=. c #EFEFEF",
"-. c #F0F0EF",
";. c #F0F0F0",
":. c #F1F1F0",
">. c #F1F1F1",
",. c #F2F2F1",
"<. c #F2F2F2",
"1. c #F3F3F2",
"2. c #F3F3F3",
"3. c #F4F4F3",
"4. c #F4F4F4",
"5. c #F5F5F4",
"6. c #F5F5F5",
"7. c #F6F6F5",
"8. c #F6F6F6",
"9. c #F7F7F6",
"0. c #F7F7F7",
"q. c #F8F8F8",
"w. c #F9F9F8",
"e. c #F9F9F9",
"r. c #FAFAFA",
"t. c #FBFBFA",
"y. c #FBFBFB",
"u. c #FCFBFB",
"i. c #FCFCFB",
"p. c #FCFCFC",
"a. c #FDFDFD",
"s. c #FEFEFD",
"d. c #FEFEFE",
"f. c #FFFFFF",
/* pixels */
"                                                                                                    ",
"                                                                                                    ",
"                                                                                                    ",
"                                                                                                    ",
"                                                                                                    ",
"                                                                                                    ",
"                                                                                                    ",
"                                                                                                    ",
"                                                                                                    ",
"                                              m j P i                                               ",
"                                    A j       m j P j i R k P                                       ",
"                                    A k 2   = P A P i j A P ) j                                     ",
"                                  i R ) P 0 7 ) { { R ) P { A m                                     ",
"                                j R [ ,.=.A i =.6.=.=.,.,.=.m > O     P                             ",
"                                e U { q.a.6.{ r.a.r.a.r.a.=.U . o k R                               ",
"                            i 0 2 k 3.a.a.a.a.a.a.a.a.a.a.,.k 2 c ) P A R                           ",
"                          P ~ G c U 3.a.a.a.a.a.a.a.a.a.a.6.m { =.) =.)                             ",
"                          ) +.,.6.6.r.a.a.a.a.a.a.a.a.a.a.a.r.a.r.6.R A i                           ",
"                        P R { r.a.a.a.a.a.a.a.a.a.a.a.a.a.a.a.a.r.{ A 0                             ",
"                        { +.6.a.a.a.a.a.a.a.a.a.a.a.a.a.a.a.a.a.6.P & # o                           ",
"                        ~ +.i.a.a.a.a.a.a.a.a.a.a.a.a.a.a.a.a.a.{ j $ # #                           ",
"                      ~ ) =.a.a.a.a.a.a.a.a.a.a.a.a.a.a.a.a.a.a.=.m ; & =                           ",
"                      U ) ,.a.a.a.a.a.a.a.a.a.a.a.a.a.a.a.a.a.a.a.,.P c c 0 a                       ",
"                      G P =.a.a.a.a.a.a.a.a.a.a.a.a.a.a.a.a.a.a.a.a.q.-.[ m B                       ",
"                      A m ) =.,.a.a.a.a.a.a.a.a.a.a.a.a.a.a.a.a.a.a.a.r.+.A m                       ",
"                          0 0 k =.r.a.a.a.a.a.a.a.a.a.a.a.a.a.a.a.a.a.a.+.) R                       ",
"                          = > 2 R 6.a.a.a.a.a.a.a.a.a.a.a.a.a.a.a.a.a.i.+.R A                       ",
"                            > j ,.r.a.a.a.a.a.a.a.a.a.a.a.a.a.a.a.a.a.6.=.'                         ",
"                            R ) 6.a.a.a.a.a.a.a.a.a.a.a.a.a.a.a.a.a.r.' ) R                         ",
"                            ) ,.r.r.a.6.a.a.a.a.a.a.a.a.a.a.a.6.,.r.,.=.)                           ",
"                            ,.,.{ 6.R P r.a.a.a.a.a.a.a.a.a.a.=.P m R [ ~                           ",
"                              { =.w 0 ) r.a.a.a.a.a.q.r.a.a.a.-.j 2 s m                             ",
"                              { s   > =.6.a.a.r.u.a.=.[ r.a.r.+.P i                                 ",
"                                    m R r.6.6.,.q.6.) 0 P ,.6.=.[ k                                 ",
"                                    ) { { { { { 6.=.) < m { ,.{                                     ",
"                                      ,.) { k A =.R R                                               ",
"                                          {   P {   R                                               ",
"                                                {   {                                               ",
"                                                                                                    ",
"                                                                                                    ",
"                                                                                                    ",
"                                                                                                    ",
"                                                                                                    ",
"                                                                                                    ",
"                                                                                                    ",
"                                                                                                    ",
"                                                                                                    ",
"                                                                                                    ",
"                                                                                                    ",
"                                                                                                    "
};
