/* XPM */
static char *_9985e01911d4df7e5ceede634d6605bAunMJqsKTlA0MX1n[] = {
/* columns rows colors chars-per-pixel */
"50 50 191 2 ",
"   c None",
".  c #0F0D0D",
"X  c #1C1C17",
"o  c #201F1A",
"O  c #23221D",
"+  c #2C2E21",
"@  c #373B2A",
"#  c #34332B",
"$  c #343332",
"%  c #3C3A35",
"&  c #3B393A",
"*  c #3A3738",
"=  c #413D3D",
"-  c #463C3A",
";  c #48423E",
":  c #4C5A38",
">  c #3E3F41",
",  c #413F40",
"<  c #3B4341",
"1  c #3D4D49",
"2  c #3D504D",
"3  c #28767A",
"4  c #33767B",
"5  c #444142",
"6  c #4B4646",
"7  c #4A494B",
"8  c #494549",
"9  c #56474C",
"0  c #544B47",
"q  c #485345",
"w  c #485B4F",
"e  c #585249",
"r  c #4E4F53",
"t  c #5B4A56",
"y  c #5A4755",
"u  c #495653",
"i  c #525355",
"p  c #555B5D",
"a  c #5F5C5E",
"s  c #5B5555",
"d  c #614E5A",
"f  c #62525D",
"g  c #625D5C",
"h  c #645E57",
"j  c #5E6A59",
"k  c #647C4C",
"l  c #6A6A58",
"z  c #776758",
"x  c #627B51",
"c  c #74634A",
"v  c #565E60",
"b  c #5A5E64",
"n  c #665561",
"m  c #6C5B63",
"M  c #655962",
"N  c #466F61",
"B  c #5A6366",
"V  c #5C646B",
"C  c #5B6A6B",
"Z  c #586663",
"A  c #4B766C",
"S  c #557864",
"D  c #4E6D75",
"F  c #5D6C73",
"G  c #5E6F78",
"H  c #5A6971",
"J  c #467E74",
"K  c #467675",
"L  c #5D727B",
"P  c #597176",
"I  c #696461",
"U  c #656565",
"Y  c #736C64",
"T  c #736E6A",
"R  c #786563",
"E  c #7A7366",
"W  c #7D756D",
"Q  c #767166",
"!  c #666E70",
"~  c #7F7A75",
"^  c #767576",
"/  c #6D7479",
"(  c #8D775E",
")  c #816E61",
"_  c #847166",
"`  c #82796B",
"'  c #8A776A",
"]  c #917D68",
"[  c #827D79",
"{  c #817B75",
"}  c #3F877E",
"|  c #718E53",
" . c #789657",
".. c #428179",
"X. c #4A8677",
"o. c #6C996E",
"O. c #639875",
"+. c #88807E",
"@. c #81A260",
"#. c #90B66B",
"$. c #80BB7C",
"%. c #8BC07B",
"&. c #96C87A",
"*. c #237F82",
"=. c #3A7B81",
"-. c #4D7D84",
";. c #5D7781",
":. c #5B7B84",
">. c #537B84",
",. c #6D7D85",
"<. c #3C8A82",
"1. c #218E92",
"2. c #328C92",
"3. c #249095",
"4. c #259599",
"5. c #299499",
"6. c #37979D",
"7. c #238386",
"8. c #239DA1",
"9. c #4C838C",
"0. c #44868E",
"q. c #5D838D",
"w. c #4A9C8B",
"e. c #479888",
"r. c #539D85",
"t. c #408A91",
"y. c #5C8A95",
"u. c #5C8E98",
"i. c #558B95",
"p. c #5D939D",
"a. c #6C848F",
"s. c #6F8D97",
"d. c #62909B",
"f. c #4BA38E",
"g. c #53A58C",
"h. c #55A187",
"j. c #4AAE99",
"k. c #48A894",
"l. c #52AE95",
"z. c #55B598",
"x. c #49B19A",
"c. c #69AA81",
"v. c #6EBA8D",
"b. c #61B08C",
"n. c #72BC8C",
"m. c #63BB94",
"M. c #69BC92",
"N. c #459BA4",
"B. c #5D96A1",
"V. c #5C9EA9",
"C. c #589BA6",
"Z. c #659FA9",
"A. c #7D97A0",
"S. c #7A9BA6",
"D. c #5CA2AE",
"F. c #52A1AB",
"G. c #67A3AD",
"H. c #7EA3AD",
"J. c #67A7B2",
"K. c #78AAB6",
"L. c #7FB4BE",
"P. c #7AC58F",
"I. c #6DC294",
"U. c #66C097",
"Y. c #79C893",
"T. c #74C794",
"R. c #8A8685",
"E. c #928D8C",
"W. c #95908B",
"Q. c #959294",
"!. c #999593",
"~. c #96989E",
"^. c #8C9FA9",
"/. c #9CA2A9",
"(. c #89ACB7",
"). c #80A9B4",
"_. c #83B4BD",
"`. c #A5ABB1",
"'. c #88CE8D",
"]. c #86C98A",
"[. c #8CD28E",
"{. c #9CD98A",
"}. c #84CF91",
"|. c #A3DD89",
" X c #A8DD85",
".X c #ADE287",
"XX c #ACE188",
"oX c #B3E486",
"OX c #98BBC5",
"+X c #A9BFC9",
"@X c #AAC6CF",
/* pixels */
"                                                                                                    ",
"                                                                                                    ",
"                                                                                                    ",
"                                                                                                    ",
"                                                                                                    ",
"                                                                                                    ",
"                                                                                                    ",
"                                          c z             #                                         ",
"                                        m ) _ m n f       l                                         ",
"                            X       d n m _ ] R n d t                                               ",
"                                  d d m m _ +.z n d d y 9                                           ",
"                                  y d f f R ( z f f t 9 -             .                             ",
"                                0 9 t d M U l U Z Z p s 0                                           ",
"                                - 0 s Z A A ..........X.l                                           ",
"                                  : S <.<.e.r.h.h.h.f.w.w.                                          ",
"                                    9.e.g.b.v.n.n.M.m.l.j.                                          ",
"                                    k.l.M.P.'.[.[.[.Y.U.z.x.                                        ",
"                                    j.m.Y.[.{.|.|.{.[.T.U.x.                                        ",
"                                    l.U.}.{. XoX.X X{.}.v.X.< z                                     ",
"                                    z.T.[.{..XoXoX.X{.[.I.N > 7                                     ",
"                                  2 A v.[.|..XoXoXoX{.[.O.w < 8                                     ",
"                                  , 1 O.].{. X XoX&.[.$.O.< 5 i                                     ",
"                                  8 > w o.%.&.#.@. .| k q * ; a                                     ",
"                                  i 8 & q x k : @ O + @ % * 5 g b                                   ",
"                                  U i & * * + + O O O $ = = 6 R.T I                                 ",
"                                  g g ; * * * $ O O * i i i r R.E.W                                 ",
"                                  g ^ 9 5 7 i r % $ r b B b i / /.+.Q                               ",
"                                  T E.g i b b b i 7 p V V V b ! /.!.W                               ",
"                                  { Q.! i b V b b b V C ! H B C ^.  [ `                             ",
"                                E [ ~./ p b H ! H U H F G G H C S.  !.E                             ",
"                                E [ `.,.v B F F G F H L L L F P A.    W Y                           ",
"                                ` {   a.V V G ;.G F P L L :.q.q.S.    E.Y                           ",
"                                ` +.  s.L F P L ;.P D >.:.y.d.y.S.      ~ h                         ",
"                                Q W.  S.q.q.q.q.a.-.K -.y.u.u.Z.K.      !.h                         ",
"                                Y E.  (.d.y.y.y.y.9.4 =.i.u.B.B.(.        ^ ;                       ",
"                                Y !.  +XG.p.d.p.y.0.3 3 0.B.C.Z.+X          h                       ",
"                              s T       K.p.p.B.B.2.*.7.2.C.D.J.            !.                      ",
"                                I       @XG.D.D.Z.6.3.3.5.6.D.L.                                    ",
"                                T         _.J.D.C.6.4.4.4.5.N.OX                                    ",
"                                E.          K.D.N.5.1.1.3.3.6.                                      ",
"                                              K.N.4.8.8.8.8.                                        ",
"                                                  8.8.8.8.                                          ",
"                                                                                                    ",
"                                                                                                    ",
"                                                                                                    ",
"                                                                                                    ",
"                                                                                                    ",
"                                                                                                    ",
"                                                                                                    ",
"                                                                                                    "
};
