/* XPM */
static char *_e7ec2996a0d4a98bfd0c433dbffa330iMhLUOxctVVNQ5pt[] = {
/* columns rows colors chars-per-pixel */
"50 50 161 2 ",
"   c None",
".  c #1671FF",
"X  c #1A76FF",
"o  c #1B7AFF",
"O  c #217DFF",
"+  c #1F84FF",
"@  c #2284FF",
"#  c #2789FF",
"$  c #2A8CFF",
"%  c #308FFF",
"&  c #2791FF",
"*  c #2C94FF",
"=  c #2E9BFF",
"-  c #3295FF",
";  c #349BFF",
":  c #399EFF",
">  c #34A4FF",
",  c #3BA4FF",
"<  c #38ABFF",
"1  c #3FB6FF",
"2  c #44A3FF",
"3  c #4FA6FF",
"4  c #44ABFF",
"5  c #4BACFF",
"6  c #52ACFF",
"7  c #59AEFF",
"8  c #44B2FF",
"9  c #4CB4FF",
"0  c #44BAFF",
"q  c #4CBCFF",
"w  c #55B3FF",
"e  c #5AB4FF",
"r  c #53BAFF",
"t  c #5CBCFF",
"y  c #63B5FF",
"u  c #69B7FF",
"i  c #63BCFF",
"p  c #6BBDFF",
"a  c #73BFFF",
"s  c #79BEFF",
"d  c #4EC3FF",
"f  c #54C5FF",
"g  c #5BC2FF",
"h  c #53C9FF",
"j  c #5BCAFF",
"k  c #63C3FF",
"l  c #6CC2FF",
"z  c #6EC1FF",
"x  c #6BC7FF",
"c  c #6FC7FF",
"v  c #6FC4FF",
"b  c #6BC4FF",
"n  c #64CDFF",
"m  c #65CBFF",
"M  c #69CBFF",
"N  c #6BCAFF",
"B  c #6FC8FF",
"V  c #6ACCFF",
"C  c #6CCCFF",
"Z  c #72C2FF",
"A  c #75C1FF",
"S  c #76C1FF",
"D  c #76C2FF",
"F  c #76C4FF",
"G  c #74C3FF",
"H  c #7FC3FF",
"J  c #78C4FF",
"K  c #7AC5FF",
"L  c #7BC6FF",
"P  c #7CC5FF",
"I  c #7FC5FF",
"U  c #7CC6FF",
"Y  c #76C9FF",
"T  c #74CAFF",
"R  c #72CFFF",
"E  c #73CCFF",
"W  c #72CCFF",
"Q  c #7DC9FF",
"!  c #7ACDFF",
"~  c #78CEFF",
"^  c #7DCDFF",
"/  c #7ECCFF",
"(  c #60D2FF",
")  c #6CD3FF",
"_  c #6BD8FF",
"`  c #73D1FF",
"'  c #75D5FF",
"]  c #74D4FF",
"[  c #7FD1FF",
"{  c #78D4FF",
"}  c #79D4FF",
"|  c #72D9FF",
" . c #7CDBFF",
".. c #7EE4FF",
"X. c #80C5FF",
"o. c #83C8FF",
"O. c #84C8FF",
"+. c #83CCFF",
"@. c #83CFFF",
"#. c #84CDFF",
"$. c #86CDFF",
"%. c #85CCFF",
"&. c #8DCFFF",
"*. c #93CFFF",
"=. c #8BD0FF",
"-. c #80DAFF",
";. c #84DCFF",
":. c #82DDFF",
">. c #8EDDFF",
",. c #93D3FF",
"<. c #96D1FF",
"1. c #97D7FF",
"2. c #96D4FF",
"3. c #9BD3FF",
"4. c #9CD2FF",
"5. c #99D4FF",
"6. c #9BD4FF",
"7. c #93D8FF",
"8. c #A4D7FF",
"9. c #ADDAFF",
"0. c #83E3FF",
"q. c #8AE3FF",
"w. c #85E8FF",
"e. c #8CE9FF",
"r. c #93E5FF",
"t. c #9DE0FF",
"y. c #9BE6FF",
"u. c #9EE4FF",
"i. c #93EAFF",
"p. c #9BEDFF",
"a. c #94F4FF",
"s. c #9AF2FF",
"d. c #A3E1FF",
"f. c #A6E6FF",
"g. c #A4E2FF",
"h. c #AEE1FF",
"j. c #A8E5FF",
"k. c #A2EFFF",
"l. c #A8ECFF",
"z. c #B5E3FF",
"x. c #B1E3FF",
"c. c #B9E4FF",
"v. c #B5ECFF",
"b. c #A5F3FF",
"n. c #ABF3FF",
"m. c #A3F8FF",
"M. c #ADFBFF",
"N. c #B2F4FF",
"B. c #BBF4FF",
"V. c #B2FAFF",
"C. c #BAFBFF",
"Z. c #C4F3FF",
"A. c #CBF7FF",
"S. c #C5FBFF",
"D. c #CAFCFF",
"F. c #D4FAFF",
"G. c #DBFCFF",
"H. c #E3FCFF",
"J. c #ECFDFF",
"K. c #F2FEFF",
"L. c #FBFFFF",
/* pixels */
"                                                                                                    ",
"                                                                                                    ",
"                                                                                                    ",
"                                                                                                    ",
"                                                                                                    ",
"                                                                                                    ",
"                                                                                                    ",
"                                                                                                    ",
"                                                                                                    ",
"                                                                                                    ",
"                                                                                                    ",
"                                                                                                    ",
"                                                                                                    ",
"                                  =.                                                                ",
"                                              ^   J                                                 ",
"                                  t t         2.9.I i         r                                     ",
"                                  t t     p p H X.p t 6 w w w r                                     ",
"                                  t i e p 4.s t i F i i 7 w w t p                                   ",
"                                  t t w J 8.p e *.6.b Z i w w k y                                   ",
"                          t     6 t F a t b p b =.I p 6.z 6 6 k y 6                                 ",
"                          g w 3 3 e b e O.*.6.,.~ J e p i w w k y 6 6                               ",
"                          i w 6 3 t t 6 p I 7.8.-.p 7 7 y 6 7 t y 6 6 6   e                         ",
"                          g 7 3 6 t w 6 7 w J z.t.b t t w 6 6 g e 6 7 3 6 t                         ",
"                          r 6 6 6 r e 6 6 6 t &.2.t e w 6 w 6 g p 9 e 6 w i                         ",
"                          r 6 6 6 w t 6 6 3 7 p [ B w 7 w w 5 e e 6 y 6 w k                         ",
"                        3 r 6 6 u e t 7 7 6 s s V +.w 7 7 t w 6 i r y 6 7 g                         ",
"                        6 9 w 6 s e p 6 6 6 e X.c z e F z t 6 w y w y 6 w t                         ",
"                        3 5 y u w 5 e w 6 e p F T Q p <.+.i 6 6 y 7 y 7 6 t 6                       ",
"                        3 w y 6 7 6 e e w w c i M 7.+.b i e 6 6 y w y 6 w t 6                       ",
"                        3 6 7 6 y e w w w r b $.R R b i i e 6 w e 6 y 6 w t 6                       ",
"                        5 w y e a e t i t t ~ h.>.R t i M t w t t 7 y 6 6 t 6                       ",
"                        w w p w e e g x k ' ;.f.y.{ M M ` n n g t w y w w t 6                       ",
"                        r s y w i k m )  .q.i.k.s.q.q... .) ( m n t i w w i 6                       ",
"                        r e p t b C { q.b.b.N.M.C.b.s.s.a...' _ ~ b x e e g       b                 ",
"                        r p x.^ M ] :.i.m.M.S.D.S.C.V.V.b.a.w...-.B x r w k       k                 ",
"                        r i ~ T ] u.i.p.V.S.H.H.G.G.G.F.C.n.s.i.{ ) V t t k       b                 ",
"                        g g b V  .r.p.N.A.F.J.J.K.J.J.G.S.B.n.i.q.| ) k t t                         ",
"                        r t b `  .e.k.B.F.G.K.L.L.L.K.H.G.S.B.p.i. .V k t t                         ",
"                g.c.6.$.r r g m | q.p.N.A.H.K.L.L.L.L.J.F.S.V.a...) k r r w Z                       ",
"                c   3 p 5 2 8 f ) 0.p.n.F.H.K.L.L.L.L.J.G.S.V.p.r.C c 4 6 3 6 3                     ",
"                &       , ; r x ' q.i.l.A.F.G.K.K.K.J.H.F.B.k.l.j.' B 9 6 2       $                 ",
"              . +       5 r < B C ' r.k.l.c.Z.F.F.F.F.Z.B.N.r. .` g 9 > $ -       @ .               ",
"              O o o @ $ 2 b ~ r q f ) 0.w.i.k.b.l.N.N.b.r.i. .( q 8 , ; : 5 % $ X . X               ",
"                  @ @ o o # 9 ; 4 9 q m _ |  ...q.p.i. .| | j q 8 9 ; $ - - o X o                   ",
"                        # # # 2 - = < 8 0 q h h ` { j d 0 0 < ; ; > & # # #                         ",
"                              Q   4 4 8 9 q q r g f f r 9 9 8 4 Z                                   ",
"                                            r t t r r                                               ",
"                                                                                                    ",
"                                                                                                    ",
"                                                                                                    "
};
