/* XPM */
static char *_429e616939e48eaf5e07e8a9860a01c9hF09nlKFZQxD4zo[] = {
/* columns rows colors chars-per-pixel */
"50 50 168 2 ",
"   c None",
".  c #5E3D27",
"X  c #56631D",
"o  c #53691A",
"O  c #566D1C",
"+  c #576E1D",
"@  c #586E1D",
"#  c #586F1D",
"$  c #5A6C1F",
"%  c #596E1E",
"&  c #596F1E",
"*  c #5A6E1F",
"=  c #5A701E",
"-  c #5A711E",
";  c #5B711F",
":  c #5A721F",
">  c #5B721F",
",  c #5C721F",
"<  c #5B741F",
"1  c #5A751F",
"2  c #5D4326",
"3  c #584921",
"4  c #575320",
"5  c #63422B",
"6  c #64422B",
"7  c #65432B",
"8  c #64462A",
"9  c #65472B",
"0  c #65432C",
"q  c #67452D",
"w  c #68452E",
"e  c #68462E",
"r  c #69462E",
"t  c #69472F",
"y  c #6B4830",
"u  c #694832",
"i  c #6C4831",
"p  c #6C4931",
"a  c #6D4931",
"s  c #6D4A31",
"d  c #6D4A32",
"f  c #6D4B33",
"g  c #6E4A32",
"h  c #6F4B32",
"j  c #6F4C32",
"k  c #6E4C34",
"l  c #6F4D35",
"z  c #704C33",
"x  c #704D35",
"c  c #714D35",
"v  c #714E36",
"b  c #724F36",
"n  c #734F36",
"m  c #724F37",
"M  c #734F37",
"N  c #755139",
"B  c #755239",
"V  c #765239",
"C  c #75533B",
"Z  c #76523A",
"A  c #77543B",
"S  c #76543C",
"D  c #77543C",
"F  c #76553F",
"G  c #78553D",
"H  c #79553D",
"J  c #7A563D",
"K  c #78553E",
"L  c #79573E",
"P  c #5E6023",
"I  c #5F6224",
"U  c #5E6922",
"Y  c #5D7420",
"T  c #5D7520",
"R  c #5E7420",
"E  c #5E7521",
"W  c #5F7521",
"Q  c #5E7621",
"!  c #5F7621",
"~  c #5F7721",
"^  c #5F7722",
"/  c #5B7920",
"(  c #5C7A21",
")  c #5D7B21",
"_  c #5F7822",
"`  c #5F7922",
"'  c #5F7C22",
"]  c #5E7D22",
"[  c #5F7C23",
"{  c #5F7E23",
"}  c #5F7F23",
"|  c #607722",
" . c #607822",
".. c #617923",
"X. c #607A22",
"o. c #617A23",
"O. c #617B23",
"+. c #627B23",
"@. c #607D23",
"#. c #607F23",
"$. c #627B24",
"%. c #617D24",
"&. c #627D24",
"*. c #617E24",
"=. c #617F24",
"-. c #627E24",
";. c #627F24",
":. c #637F24",
">. c #627E25",
",. c #637E25",
"<. c #627F25",
"1. c #637F25",
"2. c #7A5740",
"3. c #7B5942",
"4. c #7B5A42",
"5. c #7A5A43",
"6. c #7C5A42",
"7. c #7C5A43",
"8. c #7C5B44",
"9. c #618024",
"0. c #618124",
"q. c #628024",
"w. c #638124",
"e. c #638025",
"r. c #638125",
"t. c #628225",
"y. c #638225",
"u. c #638325",
"i. c #648125",
"p. c #648225",
"a. c #658225",
"s. c #648126",
"d. c #648226",
"f. c #648326",
"g. c #658326",
"h. c #668326",
"j. c #648426",
"k. c #658426",
"l. c #658526",
"z. c #658527",
"x. c #668426",
"c. c #668526",
"v. c #678526",
"b. c #668527",
"n. c #678527",
"m. c #658626",
"M. c #658627",
"N. c #668627",
"B. c #678627",
"V. c #668727",
"C. c #678727",
"Z. c #688627",
"A. c #688727",
"S. c #678827",
"D. c #688728",
"F. c #678828",
"G. c #688828",
"H. c #698828",
"J. c #688928",
"K. c #698928",
"L. c #6A8928",
"P. c #698A28",
"I. c #698A29",
"U. c #6A8A29",
"Y. c #6B8A29",
"T. c #6A8B29",
"R. c #6B8B29",
"E. c #6C8B29",
/* pixels */
"                                                                                                    ",
"                                                                                                    ",
"                                                                                                    ",
"                                                                                                    ",
"                                                                                                    ",
"                                                                                                    ",
"                                                                                                    ",
"                                                                                                    ",
"                                                                                                    ",
"                                      Z.B.        E.J.                                              ",
"                                    J.E.J.J.    J.J.J.F.                                            ",
"                                  B.J.S.B.J.M.B.J.B.S.B.9.Z.E.Z.                                    ",
"                                  B.B.B.S.M.S.F.S.M.B.B.J.J.J.J.f.                                  ",
"                            J.E.J.B.S.M.M.S.S.M.M.S.B.B.f.9.f.D.9.                                  ",
"                          J.J.F.F.S.M.S.S.M.S.M.S.M.B.:.:.f.f.f.]                                   ",
"                          J.J.B.S.M.S.M.M.S.M.S.M.S.f.f.E.H.H.Z.(   Z.B.                            ",
"                        0.B.N.F.M.F.S.S.B.S.B.F.B.B.9.F.N.S.M.S.9.J.J.J.D.                          ",
"                        ( B.F.N.B.9.9.9.F.N.M.9.:.9.:.N.F.B.S.M.F.F.J.N.B.)                         ",
"                          ] 9.N.f.f.D.B.f.f.:.f.N.F.9.B.S.M.M.S.N.N.F.N.B.)                         ",
"                        J.J.N.9.:.J.J.F.9.:.f.F.N.F.J.N.M.B.M.M.s.9.g.N.B.N.J.                      ",
"                      J.J.J.J.B.f.D.N.F.N.J.F.F.9.N.>.>.:.9.N.9.g.:.>.g.:.g.N.{                     ",
"                      J.N.N.F.N.D.N.F.N.F.F.F.z.{ :.g.>.:.:.s.:.,.,.>.,.,.:.9.{                     ",
"                      N.N.N.N.,.:.9.g.N.N.z.N.z.N.g.%.>.>.>.:.>.>.>.,.>.,.,.)                       ",
"                      9.N.N.f.>.:.:.:.g.:.:.:.z.F.N.:.:.g.:.s.>.:.g.,.>.:.g.:.Y                     ",
"                      B.B.B.:.:.,.>.:.:.:.:.:.f.N.F.) :.:.>.>.>.:.:.:.:.>.,.:.)                     ",
"                    f.Z.f.9.:.:.,.>.:.:.:.:.:.f.N.9.Y :.:.>.g.>.:.%.%.:.,.,.:.<                     ",
"                     .f.:.:.%.:.,.,.:.%.,.,.f.:.:.E o E %.>.:.%. .E W  .%.%.E &                     ",
"                    -  .%.E Y %.g.,.) U | %. . .E   2 I W | | W ,     O U - &                       ",
"                      - E O   E %.) U 3 X & U I 4   p 8   & U O                                     ",
"                              O U -     6   9 z p p f                                               ",
"                                        6 r 6 z N V f                                               ",
"                                            6 y V J f                                               ",
"                                              r V H k                                               ",
"                                              r V H k                                               ",
"                                              r V 4.m                                               ",
"                                              p S 4.m                                               ",
"                                            6 z S 8.V q                                             ",
"                                            p m 2.8.D p                                             ",
"                                          p m V 7.8.H m r                                           ",
"                                        0 r m H S 5.S m q .                                         ",
"                                              u                                                     ",
"                                                                                                    ",
"                                                                                                    ",
"                                                                                                    ",
"                                                                                                    ",
"                                                                                                    ",
"                                                                                                    ",
"                                                                                                    ",
"                                                                                                    ",
"                                                                                                    "
};
